<mxfile host="app.diagrams.net" modified="2021-08-30T04:22:55.362Z" agent="5.0 (Windows NT 10.0; Win64; x64) AppleWebKit/537.36 (KHTML, like Gecko) Chrome/92.0.4515.159 Safari/537.36" etag="53RuZckp3pV6mC_F_zsr" version="15.0.3" type="github">
  <diagram id="JuWKYEYHvKO4O_b4PdNn" name="Page-1">
    <mxGraphModel dx="538" dy="445" grid="1" gridSize="10" guides="1" tooltips="1" connect="1" arrows="1" fold="1" page="1" pageScale="1" pageWidth="827" pageHeight="1169" math="0" shadow="0">
      <root>
        <mxCell id="0" />
        <mxCell id="1" parent="0" />
        <mxCell id="KL3hrx3bi6qh9qIakElo-1" value="" style="whiteSpace=wrap;html=1;aspect=fixed;fillColor=#fff2cc;strokeColor=#d6b656;" vertex="1" parent="1">
          <mxGeometry x="40" y="80" width="320" height="320" as="geometry" />
        </mxCell>
        <mxCell id="KL3hrx3bi6qh9qIakElo-2" value="Add new to-do" style="rounded=0;whiteSpace=wrap;html=1;" vertex="1" parent="1">
          <mxGeometry x="210" y="210" width="120" height="20" as="geometry" />
        </mxCell>
        <mxCell id="KL3hrx3bi6qh9qIakElo-6" value="Description/ notes of to-do item (optional)&lt;br&gt;&lt;br&gt;" style="rounded=0;whiteSpace=wrap;html=1;align=left;" vertex="1" parent="1">
          <mxGeometry x="210" y="300" width="120" height="80" as="geometry" />
        </mxCell>
        <mxCell id="KL3hrx3bi6qh9qIakElo-7" value="Due in the next 7 days" style="rounded=0;whiteSpace=wrap;html=1;fontColor=#333333;strokeColor=none;align=left;fontStyle=1;fillColor=none;" vertex="1" parent="1">
          <mxGeometry x="210" y="100" width="130" height="40" as="geometry" />
        </mxCell>
        <mxCell id="KL3hrx3bi6qh9qIakElo-8" value="&lt;ul&gt;&lt;li&gt;&lt;span&gt;abc&lt;/span&gt;&lt;/li&gt;&lt;/ul&gt;" style="rounded=0;whiteSpace=wrap;html=1;fontColor=#333333;strokeColor=none;align=left;fontStyle=1;fillColor=none;" vertex="1" parent="1">
          <mxGeometry x="180" y="140" width="150" height="40" as="geometry" />
        </mxCell>
        <mxCell id="KL3hrx3bi6qh9qIakElo-9" value="&lt;ul&gt;&lt;li&gt;&lt;span&gt;abc&lt;/span&gt;&lt;/li&gt;&lt;/ul&gt;" style="rounded=0;whiteSpace=wrap;html=1;fontColor=#333333;strokeColor=none;align=left;fontStyle=1;fillColor=none;" vertex="1" parent="1">
          <mxGeometry x="180" y="160" width="150" height="30" as="geometry" />
        </mxCell>
        <mxCell id="KL3hrx3bi6qh9qIakElo-10" value="&lt;ul&gt;&lt;li&gt;&lt;span&gt;abc&lt;/span&gt;&lt;/li&gt;&lt;/ul&gt;" style="rounded=0;whiteSpace=wrap;html=1;fontColor=#333333;strokeColor=none;align=left;fontStyle=1;fillColor=none;" vertex="1" parent="1">
          <mxGeometry x="180" y="130" width="150" height="30" as="geometry" />
        </mxCell>
        <mxCell id="KL3hrx3bi6qh9qIakElo-11" value="&lt;b&gt;List of projects:&lt;/b&gt;&lt;br&gt;&lt;br&gt;(sidebar navigation through project list)&lt;br&gt;&lt;br&gt;&lt;br&gt;&lt;br&gt;&lt;br&gt;&lt;br&gt;&lt;br&gt;&lt;br&gt;&lt;br&gt;&lt;br&gt;&lt;br&gt;&lt;br&gt;&lt;br&gt;" style="rounded=0;whiteSpace=wrap;html=1;fillColor=#f5f5f5;align=left;strokeColor=#666666;fontColor=#333333;" vertex="1" parent="1">
          <mxGeometry x="60" y="110" width="120" height="270" as="geometry" />
        </mxCell>
        <mxCell id="KL3hrx3bi6qh9qIakElo-12" value="Add to project folder" style="rounded=0;whiteSpace=wrap;html=1;" vertex="1" parent="1">
          <mxGeometry x="210" y="240" width="120" height="20" as="geometry" />
        </mxCell>
        <mxCell id="KL3hrx3bi6qh9qIakElo-13" value="Due by: dd/mm/yyyy" style="rounded=0;whiteSpace=wrap;html=1;" vertex="1" parent="1">
          <mxGeometry x="210" y="270" width="120" height="20" as="geometry" />
        </mxCell>
        <mxCell id="KL3hrx3bi6qh9qIakElo-14" value="To-do list layout plan" style="text;html=1;align=center;verticalAlign=middle;resizable=0;points=[];autosize=1;strokeColor=none;fontStyle=5;fontSize=16;" vertex="1" parent="1">
          <mxGeometry x="30" y="40" width="180" height="20" as="geometry" />
        </mxCell>
      </root>
    </mxGraphModel>
  </diagram>
</mxfile>
